# xmcd CD database file
#
# Track frame offsets:
#	150
#	10565
#	24940
#	49145
#	76920
#	92979
#	105920
#	116327
#	134487
#	154617
#	176190
#	190122
#	204857
#	223565
#	243400
#	245217
#	271627
#	291800
#
# Disc length: 4095 seconds
#
# Revision: 0
# Processed by: cddbd v1.5.1PL0 Copyright (c) Steve Scherf et al.
# Submitted via: CDex 1.51
#
DISCID=e90ffd12
DTITLE=Professor Longhair - Ball to the Wall! Live at Tipitina's 1978
DYEAR=1900
DGENRE=Jazz
TTITLE0=Mardi Gras in New Orleans
TTITLE1=Rum and Coca Cola
TTITLE2=I've Got My Mojo Working
TTITLE3=Gone So Long
TTITLE4=Who Lotta Lovin
TTITLE5=After Hours
TTITLE6=Ball the Wall aka 501 Boogie
TTITLE7=Medley: Good Rockin/Tonight/Shake Rattle and Roll/Sick and Tired/Roberta
TTITLE8=Blad Head
TTITLE9=Hey Little Girl
TTITLE10=Stack-O-Lee
TTITLE11=Go Ahead and Cry
TTITLE12=Her Mind is Gone
TTITLE13=Don't You Feel Like Cryin'
TTITLE14=Intro by James Booker
TTITLE15=Gone So Long
TTITLE16=Mess Around
TTITLE17=Tipitina
EXTD=
EXTT0=
EXTT1=
EXTT2=
EXTT3=
EXTT4=
EXTT5=
EXTT6=
EXTT7=
EXTT8=
EXTT9=
EXTT10=
EXTT11=
EXTT12=
EXTT13=
EXTT14=
EXTT15=
EXTT16=
EXTT17=
PLAYORDER=
